<svg width="43" height="43" viewBox="0 0 43 43" fill="none" xmlns="http://www.w3.org/2000/svg">
<path d="M28.2128 3.58333C35.099 3.58333 39.4166 7.86946 39.4166 14.7872V18.9472L39.4041 19.1333C39.3134 19.8024 38.7398 20.3182 38.0457 20.3182H38.03L37.8135 20.3008C37.529 20.2549 37.2644 20.119 37.0604 19.9102C36.8053 19.6492 36.6663 19.2963 36.6748 18.9315V14.7872C36.6748 9.33494 33.665 6.32519 28.2128 6.32519H14.7871C9.31917 6.32519 6.32518 9.33494 6.32518 14.7872V28.2286C6.32518 33.6808 9.33493 36.6748 14.7871 36.6748H28.2128C33.6808 36.6748 36.6748 33.6651 36.6748 28.2286C36.6748 27.4714 37.2886 26.8577 38.0457 26.8577C38.8029 26.8577 39.4166 27.4714 39.4166 28.2286C39.4166 35.1305 35.1305 39.4167 28.2286 39.4167H14.7871C7.86945 39.4167 3.58331 35.1305 3.58331 28.2286V14.7872C3.58331 7.86946 7.86945 3.58333 14.7871 3.58333H28.2128ZM13.8889 17.1193C14.2526 17.1316 14.5965 17.288 14.8447 17.554C15.093 17.8201 15.2254 18.1739 15.2126 18.5375V29.9935C15.1865 30.7506 14.5515 31.3432 13.7944 31.3171C13.0372 31.291 12.4446 30.6561 12.4707 29.8989V18.4272L12.4952 18.2128C12.5501 17.9318 12.6932 17.6734 12.9064 17.4768C13.1729 17.231 13.5268 17.1022 13.8889 17.1193ZM21.563 11.7459C22.3202 11.7459 22.9339 12.3597 22.9339 13.1168V29.9147C22.9339 30.6718 22.3202 31.2856 21.563 31.2856C20.8059 31.2856 20.1921 30.6718 20.1921 29.9147V13.1168C20.1921 12.3597 20.8059 11.7459 21.563 11.7459ZM29.1583 23.1703C29.9154 23.1703 30.5292 23.7841 30.5292 24.5413V29.8989C30.5292 30.6561 29.9154 31.2699 29.1583 31.2699C28.4011 31.2699 27.7874 30.6561 27.7874 29.8989V24.5413C27.7874 23.7841 28.4011 23.1703 29.1583 23.1703Z" fill="#200E32"/>
</svg>
