<svg width="52" height="52" viewBox="0 0 52 52" fill="none" xmlns="http://www.w3.org/2000/svg">
<path d="M44.251 17.369C43.4546 17.3699 42.6911 17.6866 42.1281 18.2497C41.565 18.8128 41.2483 19.5762 41.2474 20.3726C41.2474 20.775 41.3296 21.1588 41.4742 21.5103L32.5832 29.7856C32.2105 29.5361 31.7864 29.3739 31.3423 29.3111C30.8983 29.2483 30.4458 29.2864 30.0186 29.4226L27.1773 25.843C27.3894 25.4259 27.5142 24.9683 27.5142 24.4868C27.5142 22.8311 26.1674 21.4833 24.5107 21.4833C22.854 21.4833 21.5072 22.8311 21.5072 24.4868C21.5072 24.6386 21.5353 24.7842 21.5571 24.9319L14.3863 30.5552C13.9083 30.2485 13.3526 30.0847 12.7847 30.083C11.9884 30.0839 11.2249 30.4006 10.6618 30.9637C10.0987 31.5268 9.78201 32.2902 9.78119 33.0866C9.78119 34.7433 11.128 36.0911 12.7847 36.0911C14.4414 36.0911 15.7882 34.7433 15.7882 33.0866C15.7882 32.7808 15.7289 32.4906 15.6437 32.213L22.5773 26.7758C22.5961 26.7914 22.6096 26.8122 22.6283 26.8268C23.0471 27.1633 23.5484 27.3815 24.08 27.4589C24.6116 27.5362 25.1543 27.4699 25.6516 27.2667L28.3837 30.7091C28.0925 31.1771 27.9177 31.7127 27.9177 32.2837C27.9183 33.0802 28.2349 33.8439 28.798 34.4073C29.3611 34.9706 30.1248 35.2874 30.9213 35.2882C31.7177 35.2871 32.4812 34.9702 33.0442 34.407C33.6073 33.8437 33.924 33.0801 33.9248 32.2837C33.9209 32.0153 33.8806 31.7488 33.8052 31.4912L42.8906 23.036C43.3014 23.2471 43.759 23.3771 44.252 23.3771C45.9077 23.3771 47.2555 22.0293 47.2555 20.3736C47.2555 18.7179 45.9077 17.369 44.251 17.369ZM12.7847 34.009C12.6633 34.0089 12.5431 33.9849 12.431 33.9383C12.3189 33.8917 12.217 33.8235 12.1313 33.7375C12.0455 33.6516 11.9775 33.5496 11.9312 33.4373C11.8848 33.3251 11.8611 33.2049 11.8612 33.0834C11.8613 32.962 11.8854 32.8418 11.932 32.7297C11.9786 32.6176 12.0468 32.5157 12.1327 32.43C12.2187 32.3442 12.3207 32.2762 12.4329 32.2299C12.5451 32.1836 12.6654 32.1598 12.7868 32.1599C13.032 32.1602 13.2671 32.2579 13.4402 32.4315C13.6134 32.605 13.7106 32.8403 13.7103 33.0855C13.71 33.3307 13.6124 33.5658 13.4388 33.739C13.2652 33.9122 13.0299 34.0093 12.7847 34.009ZM23.9335 25.2065C23.7854 25.0863 23.6781 24.9233 23.6262 24.7398C23.5743 24.5563 23.5803 24.3612 23.6435 24.1812C23.7067 24.0013 23.8239 23.8452 23.9791 23.7344C24.1343 23.6236 24.32 23.5635 24.5107 23.5622C24.693 23.5627 24.8712 23.6171 25.0227 23.7185C25.1742 23.8199 25.2924 23.9639 25.3623 24.1323C25.4322 24.3007 25.4508 24.486 25.4156 24.6649C25.3805 24.8438 25.2933 25.0084 25.1649 25.1378V25.1389H25.1638C24.7977 25.5029 24.154 25.3833 23.9335 25.2065ZM30.9213 33.2072C30.7285 33.2066 30.5408 33.1457 30.3843 33.0332C30.2279 32.9206 30.1105 32.762 30.0486 32.5795C29.9867 32.3969 29.9835 32.1996 30.0392 32.0151C30.095 31.8306 30.207 31.6682 30.3597 31.5505C30.3638 31.5474 30.3701 31.5463 30.3742 31.5422L30.3753 31.5411C30.5329 31.4224 30.725 31.3584 30.9223 31.3591C31.1581 31.373 31.3797 31.4764 31.5417 31.6483C31.7036 31.8202 31.7938 32.0475 31.7937 32.2837C31.7935 32.5198 31.7031 32.747 31.5409 32.9187C31.3788 33.0904 31.1571 33.1936 30.9213 33.2072ZM44.251 21.2961C44.127 21.3002 44.0035 21.2793 43.8878 21.2346C43.7721 21.19 43.6665 21.1226 43.5774 21.0363C43.4883 20.95 43.4174 20.8467 43.3691 20.7325C43.3207 20.6183 43.2958 20.4955 43.2959 20.3715C43.296 20.2475 43.321 20.1247 43.3695 20.0106C43.418 19.8964 43.4889 19.7932 43.5781 19.707C43.6673 19.6209 43.773 19.5535 43.8887 19.509C44.0045 19.4645 44.128 19.4438 44.252 19.448C44.4917 19.4562 44.7188 19.5572 44.8855 19.7297C45.0521 19.9022 45.1452 20.1327 45.145 20.3725C45.1449 20.6124 45.0516 20.8428 44.8847 21.0151C44.7179 21.1874 44.4907 21.2882 44.251 21.2961Z" fill="black"/>
</svg>
