<svg width="37" height="37" viewBox="0 0 37 37" fill="none" xmlns="http://www.w3.org/2000/svg">
<path fill-rule="evenodd" clip-rule="evenodd" d="M33.1828 15.0357C32.1976 8.97167 27.0469 4.46039 20.906 4.2828C20.614 4.27135 20.3294 4.37648 20.115 4.575C19.9006 4.77353 19.774 5.04916 19.7629 5.34115V5.43993L20.4544 15.7836C20.4998 16.4799 21.0984 17.0092 21.795 16.9689L32.1668 16.2775C32.4591 16.2558 32.7306 16.1186 32.9214 15.8961C33.1121 15.6736 33.2062 15.3842 33.1828 15.0921V15.0357Z" stroke="#200E32" stroke-width="1.5" stroke-linecap="round" stroke-linejoin="round"/>
<path d="M13.7233 10.4354C14.3831 10.2827 15.0582 10.6203 15.332 11.2397C15.4037 11.3854 15.4468 11.5435 15.459 11.7054C15.6001 13.7092 15.8965 18.0978 16.0658 20.4685C16.0947 20.8956 16.2926 21.2935 16.6157 21.5742C16.9388 21.855 17.3605 21.9954 17.7874 21.9643L26.4941 21.4281C26.8828 21.4047 27.2639 21.543 27.5471 21.8103C27.8304 22.0775 27.9906 22.4498 27.9899 22.8392C27.6371 28.0969 23.8596 32.4923 18.7148 33.6316C13.5699 34.7709 8.28996 32.3813 5.75038 27.7641C4.99227 26.4352 4.51217 24.9661 4.33924 23.446C4.26532 22.9795 4.23696 22.5069 4.25458 22.0349C4.26955 16.4202 8.21282 11.5823 13.7092 10.4354" stroke="#200E32" stroke-width="1.5" stroke-linecap="round" stroke-linejoin="round"/>
</svg>
