<svg width="46" height="46" viewBox="0 0 46 46" fill="none" xmlns="http://www.w3.org/2000/svg">
<path d="M31.3734 30.0797C30.1605 29.6574 28.8488 29.6305 27.6359 29.2082C27.2676 29.0824 26.5398 28.9297 26.3871 28.5074C26.2434 28.0941 26.2434 27.609 26.2164 27.1777C26.1984 26.8363 26.1895 26.4949 26.1895 26.1535C26.1895 25.9289 26.7645 25.4527 26.8902 25.2461C27.3754 24.4375 27.4203 23.3504 27.5102 22.434C28.2918 22.6496 28.3906 21.2031 28.5254 20.7629C28.6242 20.4574 29.2262 18.3551 28.2918 18.6426C28.5164 18.2473 28.6063 17.7621 28.6691 17.3219C28.8488 16.1719 28.9207 14.9141 28.5703 13.791C27.8426 11.4551 25.6055 10.1434 23.2426 10.0715C20.8438 9.99063 18.4359 11.1406 17.5375 13.4676C17.1062 14.5996 17.1422 15.8305 17.2859 17.0164C17.3488 17.5555 17.4387 18.1574 17.7082 18.6426C16.8367 18.382 17.3039 20.2328 17.4027 20.5563C17.5465 21.0145 17.6723 22.6586 18.4898 22.434C18.5617 23.1617 18.6426 23.9074 18.8402 24.6172C18.975 25.0934 19.2535 25.4977 19.577 25.866C19.7387 26.0457 19.8195 26.0637 19.8105 26.2973C19.8016 26.9981 19.8195 27.7527 19.6398 28.4356C19.4602 29.1184 17.9598 29.4059 17.3578 29.5317C15.7406 29.8641 14.2492 30.0168 12.9016 31.0231C11.3293 32.182 10.5117 33.9879 10.5117 35.9375H35.4883C35.4883 33.2871 33.8891 30.9512 31.3734 30.0797C32.3887 30.4301 30.3672 29.7293 31.3734 30.0797ZM13.216 32.6672C13.7191 32.1371 14.357 31.6699 15.0488 31.4094C15.9922 31.05 17.0613 31.068 18.0406 30.8164C18.8492 30.6098 19.8555 30.2863 20.4844 29.7024C21.0594 29.1633 21.1223 28.3367 21.1762 27.591C21.2211 26.9621 21.2121 26.3422 21.2121 25.7133C21.2121 25.2731 20.7 25.0215 20.4484 24.6711C20.0441 24.1231 20.0262 23.3055 19.9453 22.6496C19.9094 22.3621 19.9004 21.9938 19.6578 21.7961C19.3883 21.5805 19.1906 21.4637 19.0559 21.1223C18.8762 20.6551 18.8133 20.152 18.6695 19.6668C18.5797 19.3524 18.8941 19.0559 19.0199 18.7953C19.2535 18.3191 18.8492 17.5824 18.7684 17.0883C18.5168 15.6149 18.5258 14.0066 19.5859 12.8387C21.7152 10.4848 26.5937 11.2305 27.2945 14.5367C27.5102 15.5699 27.3754 16.7738 27.0879 17.7801C26.9621 18.2113 26.8184 18.5258 27.0699 18.9481C27.4473 19.559 27.2855 19.9543 27.1059 20.6371C26.9621 21.2031 26.7824 21.4547 26.3512 21.8051C25.9918 22.0926 26.0457 22.8113 25.9828 23.2246C25.9109 23.7277 25.866 24.2578 25.5605 24.6801C25.4438 24.8418 24.8059 25.3449 24.8059 25.5156C24.8059 26.5039 24.7609 27.5102 24.9316 28.4895C25.1652 29.882 26.3332 30.2145 27.5012 30.6906C28.6871 31.1488 30.0617 30.9781 31.2117 31.5441C32.3977 32.1281 33.5387 33.1973 33.8801 34.518H12.1289C12.2996 33.7723 12.7129 33.2063 13.216 32.6672C12.6859 33.2332 14.0426 31.7957 13.216 32.6672Z" fill="black"/>
<path d="M12.9465 28.9297C13.5754 28.6152 14.2582 28.5433 14.95 28.4715C15.2016 28.4445 15.3184 28.2738 15.1297 28.0312C14.7703 27.573 13.5305 27.4832 13.0094 27.2766C12.6859 27.1508 12.5961 27.034 12.5691 26.6746C12.5602 26.5129 12.4703 25.7941 12.5961 25.6773C12.6859 25.5875 13.252 25.6234 13.3777 25.6055C13.8898 25.5426 14.4109 25.4348 14.8961 25.2461C15.1027 25.1652 15.3004 25.0664 15.4801 24.9406C15.6957 24.7789 15.3184 24.3836 15.2195 24.168C14.9141 23.4941 14.7793 22.7574 14.7344 22.0207C14.6445 20.5742 14.8691 19.1187 14.5996 17.6812C14.1953 15.4801 12.4973 14.375 10.332 14.375C8.99336 14.375 7.67266 14.8332 6.92695 16.0012C6.10039 17.2859 6.14531 18.8851 6.19023 20.3496C6.21719 21.1851 6.25313 22.0297 6.13633 22.8652C6.08242 23.2246 6.00156 23.575 5.87578 23.9164C5.77695 24.1769 5.27383 24.8238 5.47148 24.9586C6.21719 25.4887 7.475 25.6683 8.37344 25.5965C8.40039 26.0367 8.48125 26.6027 8.31953 27.016C8.06797 27.6629 6.19023 27.8336 5.62422 28.0223C4.04297 28.5523 2.875 29.873 2.875 31.625H10.0176C10.1344 31.625 10.5836 30.7894 10.7094 30.6547C11.3383 29.9539 12.1109 29.3519 12.9465 28.9297C13.7551 28.5254 11.6348 29.5945 12.9465 28.9297ZM9.23594 30.1875H4.84258C5.48047 29.1273 7.07969 29.1992 8.13086 28.8219C9.10117 28.4715 9.72109 27.8785 9.81992 26.8453C9.82891 26.7285 9.83789 24.2219 9.73906 24.2219C8.95742 24.1949 8.13984 24.2129 7.3582 24.0961C7.97813 22.0926 7.38516 20.0262 7.71758 18.0047C7.96016 16.5402 8.89453 15.7316 10.3859 15.7316C11.8145 15.7316 12.8746 16.3965 13.1801 17.834C13.6113 19.9183 13.0004 22.0476 13.6652 24.114C13.1711 24.2398 12.65 24.2578 12.1379 24.2758C11.8863 24.2848 11.6258 24.2937 11.3742 24.3027C11.2125 24.3117 11.2664 24.5902 11.2574 24.725C11.1676 25.7043 10.8082 27.2496 11.5898 28.0402C10.7273 28.5793 9.79297 29.325 9.23594 30.1875ZM35.9195 31.625H43.125C43.125 29.873 41.948 28.5433 40.3668 28.0223C39.6391 27.7887 38.2375 27.7168 37.7164 27.0879C37.4559 26.7734 37.5996 25.9738 37.6266 25.5965C38.0219 25.6324 38.4531 25.5695 38.8574 25.5156C39.2258 25.4617 39.5852 25.3898 39.9355 25.2641C40.0973 25.2012 40.259 25.1383 40.4117 25.0484C40.7621 24.8418 40.6004 24.8058 40.4207 24.5004C39.4414 22.8562 39.8816 20.7719 39.8367 18.966C39.8008 17.4656 39.4055 15.8215 38.0398 14.9769C36.809 14.2133 34.9852 14.1863 33.6645 14.7254C29.8551 16.2527 32.1012 21.3019 30.7984 24.1949C30.5738 24.6801 30.2504 24.8508 30.8164 25.1383C31.1309 25.3 31.4723 25.4078 31.8137 25.4887C32.3348 25.6144 32.8738 25.6863 33.4129 25.7043C33.5027 25.7043 33.4398 26.8363 33.4129 26.9531C33.3141 27.3933 32.3527 27.5191 31.9934 27.618C31.625 27.7168 31.0141 27.7437 30.8344 28.1301C30.5648 28.7051 31.7238 28.5613 32.0113 28.6152C32.9367 28.7859 33.7543 29.298 34.473 29.882C35.0031 30.3133 35.7219 30.9242 35.9195 31.625ZM35.8836 29.1902C35.4254 28.768 34.9492 28.3547 34.4191 28.0223C35.2098 27.2316 34.8414 25.6953 34.7516 24.707C34.6977 24.141 34.5719 24.2848 34.0059 24.2668C33.4668 24.2488 32.8559 24.2758 32.3438 24.1051C32.9906 22.1015 32.4605 20.0441 32.793 18.0047C33.0445 16.4683 34.0957 15.7137 35.623 15.7137C37.0066 15.7137 37.959 16.4055 38.2465 17.7801C38.6867 19.8555 38.0129 22.0027 38.6508 24.0691C37.8871 24.1859 37.0965 24.159 36.3238 24.1859C36.1352 24.1949 36.1531 26.441 36.1711 26.6387C36.234 27.6898 36.7191 28.3277 37.7164 28.732C38.8035 29.1723 40.5016 29.0555 41.1664 30.1605H37.1504C36.5125 30.1695 36.3508 29.6125 35.8836 29.1902C36.243 29.5137 35.4344 28.7769 35.8836 29.1902Z" fill="black"/>
</svg>
